<?xml version="1.0" encoding="UTF-8"?>
<svg version="1.1" xmlns="http://www.w3.org/2000/svg" width="500" height="500">
<path d="M0 0 C165 0 330 0 500 0 C500 165 500 330 500 500 C335 500 170 500 0 500 C0 335 0 170 0 0 Z " fill="#D8D8D8" transform="translate(0,0)"/>
<path d="M0 0 C-6.36740533 16.50808789 -17.87011151 29.45939294 -30 42 C-30.95712891 42.99 -30.95712891 42.99 -31.93359375 44 C-45.82526981 58.29162834 -45.82526981 58.29162834 -53.4140625 64.02734375 C-55.42214455 65.55918882 -57.34891636 67.12219907 -59.2734375 68.75390625 C-73.56667086 80.76769078 -89.41093871 89.74093052 -107 96 C-108.08667969 96.38671875 -109.17335938 96.7734375 -110.29296875 97.171875 C-125.96908183 102.13629571 -142.72536879 104.34962536 -159.125 104.375 C-160.1135498 104.37661133 -161.10209961 104.37822266 -162.12060547 104.37988281 C-167.44433519 104.29705901 -171.96377879 103.74384391 -177 102 C-177 101.67 -177 101.34 -177 101 C-175.87207031 100.86464844 -174.74414062 100.72929687 -173.58203125 100.58984375 C-148.54902931 97.28908441 -122.75450196 88.19595911 -104.76953125 69.70703125 C-103 68 -103 68 -101 68 C-101 67.34 -101 66.68 -101 66 C-99.36216202 64.3049949 -97.6904047 62.64258561 -96 61 C-91.44730919 55.80537133 -87.254721 50.43312754 -83.36035156 44.73632812 C-75.61035756 33.45135661 -64.74031735 21.43507934 -51 18 C-51.33 21.63 -51.66 25.26 -52 29 C-50.6696875 27.205625 -50.6696875 27.205625 -49.3125 25.375 C-48.21046213 23.91505731 -47.10634205 22.4566837 -46 21 C-45.58234375 20.44183594 -45.1646875 19.88367188 -44.734375 19.30859375 C-36.3159965 8.56113053 -23.81529652 6.43138133 -11.2265625 2.9296875 C-9.03903446 2.29938281 -6.86650704 1.61498933 -4.7109375 0.8828125 C-2 0 -2 0 0 0 Z " fill="#131425" transform="translate(340,197)"/>
<path d="M0 0 C0.02578125 1.08796875 0.0515625 2.1759375 0.078125 3.296875 C0.42885885 13.54181061 0.97947113 23.993055 7.3125 32.5625 C14.10649103 38.72449187 22.18529937 38.96081893 31 40 C23.10684772 49.91703748 14.03889969 55.98703344 2 60 C-3.57248105 60.59426808 -8.51550554 60.62966059 -13.33984375 57.390625 C-19.00172732 52.64796488 -23.42420817 47.33910456 -25 40 C-25.20034834 37.60037326 -25.15085429 35.41366866 -25 33 C-24.236875 33.309375 -23.47375 33.61875 -22.6875 33.9375 C-20.81210323 34.67893593 -18.91315348 35.36228217 -17 36 C-17.48597656 35.46117187 -17.97195312 34.92234375 -18.47265625 34.3671875 C-21.28474754 30.00880561 -20.58687027 24.99851572 -20 20 C-18.5 16.8125 -18.5 16.8125 -16 14 C-15.40574219 13.28070313 -14.81148437 12.56140625 -14.19921875 11.8203125 C-4.21977459 0 -4.21977459 0 0 0 Z " fill="#141525" transform="translate(207,219)"/>
<path d="M0 0 C0.5559082 0.31678711 1.11181641 0.63357422 1.68457031 0.95996094 C9.73551948 5.57685596 17.5060652 10.51620301 25 16 C24.34 16.33 23.68 16.66 23 17 C20.89282227 16.21142578 20.89282227 16.21142578 18.31640625 14.9453125 C17.38892578 14.49542969 16.46144531 14.04554688 15.50585938 13.58203125 C14.53455078 13.10121094 13.56324219 12.62039063 12.5625 12.125 C10.64781822 11.18870658 8.7324815 10.25375096 6.81640625 9.3203125 C5.96506104 8.90023926 5.11371582 8.48016602 4.23657227 8.04736328 C-4.4937871 3.95902776 -15.00147048 5.00142261 -23.90576172 8.05053711 C-28.26874806 9.67141774 -32.57859684 11.41912888 -36.88671875 13.1796875 C-41.18509212 14.31225765 -45.26142292 14.296468 -49.6875 14.25 C-51.01346191 14.24419922 -51.01346191 14.24419922 -52.36621094 14.23828125 C-58.72933179 14.154218 -64.81690599 13.58831773 -71 12 C-68.95346228 9.78481314 -67.09476313 8.37041099 -64.3828125 7.0625 C-63.69316406 6.72476562 -63.00351563 6.38703125 -62.29296875 6.0390625 C-61.57753906 5.69617188 -60.86210937 5.35328125 -60.125 5 C-58.71000926 4.3144125 -57.29592461 3.62695135 -55.8828125 2.9375 C-55.20605469 2.61128662 -54.52929688 2.28507324 -53.83203125 1.94897461 C-51.8312903 0.96404534 -51.8312903 0.96404534 -49.5078125 -0.74609375 C-45.95214725 -2.52392637 -42.61821356 -2.23579869 -38.75 -2.0625 C-31.90950531 -1.86741721 -31.90950531 -1.86741721 -25.1875 -3 C-16.11851971 -5.42073362 -8.08130818 -4.6498604 0 0 Z " fill="#181929" transform="translate(315,282)"/>
<path d="M0 0 C0 0.99 0 1.98 0 3 C-1.65 3.66 -3.3 4.32 -5 5 C-5 5.66 -5 6.32 -5 7 C-3.68 6.34 -2.36 5.68 -1 5 C-0.505 5.99 -0.505 5.99 0 7 C0.99 7.66 1.98 8.32 3 9 C2.46375 9.03996094 1.9275 9.07992188 1.375 9.12109375 C-6.5690343 10.17942727 -12.59901097 13.88144267 -19.36328125 17.90625 C-22.16030467 19.56374536 -24.92701444 20.90632622 -28 22 C-27.01 22.66 -26.02 23.32 -25 24 C-28.04386724 24.08226668 -30.07175348 23.97608217 -33 23 C-35.33006911 22.64456573 -37.66327016 22.3086247 -40 22 C-37.26275495 19.26275495 -33.988435 18.35790713 -30.4375 17 C-19.69436208 12.74945916 -9.09161143 7.19849954 0 0 Z " fill="#CDCED2" transform="translate(273,271)"/>
<path d="M0 0 C6.35105838 1.39142811 11.08992664 4.27843154 16.5 7.8125 C17.31597656 8.33392578 18.13195312 8.85535156 18.97265625 9.39257812 C23.7496929 12.46353025 28.40718107 15.66032924 33 19 C32.01 19.495 32.01 19.495 31 20 C28.89282227 19.22729492 28.89282227 19.22729492 26.31640625 17.98046875 C25.38892578 17.53509766 24.46144531 17.08972656 23.50585938 16.63085938 C22.53455078 16.15455078 21.56324219 15.67824219 20.5625 15.1875 C19.11133789 14.49043945 19.11133789 14.49043945 17.63085938 13.77929688 C8.23421749 9.23421749 8.23421749 9.23421749 6 7 C4.48530552 6.76807135 2.96245438 6.58784762 1.4375 6.4375 C0.61121094 6.35371094 -0.21507812 6.26992188 -1.06640625 6.18359375 C-1.70449219 6.12300781 -2.34257812 6.06242187 -3 6 C-2 4 -1 2 0 0 Z " fill="#191928" transform="translate(307,279)"/>
<path d="M0 0 C0.33 0.99 0.66 1.98 1 3 C0.34 3 -0.32 3 -1 3 C-1 3.66 -1 4.32 -1 5 C-7.1023782 10.7031572 -13.94289532 15.55663779 -21 20 C-21.33 19.34 -21.66 18.68 -22 18 C-22.99 17.34 -23.98 16.68 -25 16 C-24.33355469 15.68289063 -23.66710937 15.36578125 -22.98046875 15.0390625 C-15.99541739 11.50257496 -10.83356197 7.41737648 -5.3125 1.9765625 C-3 0 -3 0 0 0 Z " fill="#CDCDD2" transform="translate(240,260)"/>
<path d="M0 0 C0 0.66 0 1.32 0 2 C0.99 2.66 1.98 3.32 3 4 C-0.465 5.485 -0.465 5.485 -4 7 C-3.01 7.66 -2.02 8.32 -1 9 C-4.04386724 9.08226668 -6.07175348 8.97608217 -9 8 C-11.33006911 7.64456573 -13.66327016 7.3086247 -16 7 C-13.53859635 4.53859635 -11.21543707 3.69673014 -8 2.375 C-6.9275 1.92898438 -5.855 1.48296875 -4.75 1.0234375 C-2 0 -2 0 0 0 Z " fill="#C6C7CB" transform="translate(249,286)"/>
<path d="M0 0 C-0.99 0.33 -1.98 0.66 -3 1 C-3.33 1.66 -3.66 2.32 -4 3 C2.27 3 8.54 3 15 3 C15 3.33 15 3.66 15 4 C11.14589793 4.05847045 7.29191135 4.09375405 3.4375 4.125 C1.80844727 4.15013672 1.80844727 4.15013672 0.14648438 4.17578125 C-5.64479442 4.21098659 -10.54134642 3.98923674 -16 2 C-16 1.67 -16 1.34 -16 1 C-14.0852312 0.63571223 -12.16807707 0.28394694 -10.25 -0.0625 C-9.18265625 -0.25972656 -8.1153125 -0.45695312 -7.015625 -0.66015625 C-4.25228095 -0.97156937 -2.59053383 -0.8991416 0 0 Z " fill="#484851" transform="translate(179,297)"/>
<path d="M0 0 C-1.4564336 3.83968859 -3.28214217 5.31006462 -7 7 C-10.3125 7.1875 -10.3125 7.1875 -13 7 C-10.66265451 0.83790735 -6.22059253 -0.43399483 0 0 Z " fill="#D1D2D6" transform="translate(261,282)"/>
<path d="M0 0 C-0.33 2.97 -0.66 5.94 -1 9 C-1.66 9 -2.32 9 -3 9 C-3.33 8.34 -3.66 7.68 -4 7 C-6.32156597 6.59270772 -8.6568787 6.25561323 -11 6 C-3.8 0 -3.8 0 0 0 Z " fill="#1C1D29" transform="translate(289,215)"/>
<path d="M0 0 C5.63098876 3.00064027 10.88084541 6.18786361 16 10 C15.01 10.495 15.01 10.495 14 11 C12.30419922 10.37915039 12.30419922 10.37915039 10.3046875 9.34765625 C9.58925781 8.98349609 8.87382812 8.61933594 8.13671875 8.24414062 C7.39035156 7.85419922 6.64398438 7.46425781 5.875 7.0625 C4.74384766 6.48338867 4.74384766 6.48338867 3.58984375 5.89257812 C1.72290903 4.93547868 -0.13902628 3.96863894 -2 3 C-1.34 2.67 -0.68 2.34 0 2 C0 1.34 0 0.68 0 0 Z " fill="#393940" transform="translate(324,288)"/>
<path d="M0 0 C3.465 1.485 3.465 1.485 7 3 C7 3.99 7 4.98 7 6 C0.375 5.25 0.375 5.25 -3 3 C-2.34 3 -1.68 3 -1 3 C-0.67 2.01 -0.34 1.02 0 0 Z " fill="#20212D" transform="translate(317,284)"/>
<path d="M0 0 C0 0.99 0 1.98 0 3 C-1.65 3.66 -3.3 4.32 -5 5 C-5 5.66 -5 6.32 -5 7 C-3.68 6.34 -2.36 5.68 -1 5 C-0.67 5.66 -0.34 6.32 0 7 C0.99 7.66 1.98 8.32 3 9 C0.03 8.67 -2.94 8.34 -6 8 C-6 6.68 -6 5.36 -6 4 C-3 1.75 -3 1.75 0 0 Z " fill="#C6C7CB" transform="translate(273,271)"/>
<path d="M0 0 C0 0.66 0 1.32 0 2 C-3.63 3.98 -7.26 5.96 -11 8 C-9.76923077 3.07692308 -9.76923077 3.07692308 -7 1 C-4.5870449 0.3526218 -2.49412245 0 0 0 Z " fill="#1D1D29" transform="translate(269,273)"/>
<path d="M0 0 C0.8971875 0.5259375 0.8971875 0.5259375 1.8125 1.0625 C0.8225 2.5475 0.8225 2.5475 -0.1875 4.0625 C-2.8275 3.7325 -5.4675 3.4025 -8.1875 3.0625 C-5.67391791 0.30952914 -3.81682031 -1.63578013 0 0 Z " fill="#282933" transform="translate(252.1875,290.9375)"/>
<path d="M0 0 C0.33 0.99 0.66 1.98 1 3 C0.34 3 -0.32 3 -1 3 C-1 3.66 -1 4.32 -1 5 C-3.49064888 5.68707555 -5.37886292 6 -8 6 C-3.375 0 -3.375 0 0 0 Z " fill="#C1C1C5" transform="translate(240,260)"/>
<path d="M0 0 C0.598125 0.309375 1.19625 0.61875 1.8125 0.9375 C4.08956772 2.10209704 4.08956772 2.10209704 7 3 C6.34 4.32 5.68 5.64 5 7 C2.37812506 5.95125002 1.20628639 5.35068687 -0.25 2.875 C-0.4975 2.25625 -0.745 1.6375 -1 1 C-0.67 0.67 -0.34 0.34 0 0 Z " fill="#C5C6CB" transform="translate(214,248)"/>
<path d="M0 0 C1 3 1 3 1 5 C-1.5 6.625 -1.5 6.625 -4 8 C-4 4.09161134 -2.49432124 2.88405893 0 0 Z " fill="#272734" transform="translate(265,231)"/>
<path d="M0 0 C0.33 0.66 0.66 1.32 1 2 C1.66 2 2.32 2 3 2 C2.3405469 5.69293736 1.47070566 6.70572579 -1 10 C-0.67 6.7 -0.34 3.4 0 0 Z " fill="#B6B7C0" transform="translate(288,218)"/>
<path d="M0 0 C0.598125 0.20625 1.19625 0.4125 1.8125 0.625 C-2.9375 5.5 -2.9375 5.5 -5.1875 6.625 C-5.375 4.25 -5.375 4.25 -5.1875 1.625 C-2.1875 -0.375 -2.1875 -0.375 0 0 Z " fill="#CBCCD1" transform="translate(299.1875,211.375)"/>
<path d="M0 0 C-1.12451727 2.9719385 -2.22293791 5.33440687 -4 8 C-4 6.02 -4 4.04 -4 2 C-4.66 1.67 -5.32 1.34 -6 1 C-3.92446352 0.4465236 -2.15634036 0 0 0 Z " fill="#2B2935" transform="translate(340,197)"/>
</svg>
